<?xml version="1.0" standalone="no"?>
<!DOCTYPE svg PUBLIC "-//W3C//DTD SVG 20010904//EN"
 "http://www.w3.org/TR/2001/REC-SVG-20010904/DTD/svg10.dtd">
<svg version="1.0" xmlns="http://www.w3.org/2000/svg"
 width="1080.000000pt" height="1080.000000pt" viewBox="0 0 1080.000000 1080.000000"
 preserveAspectRatio="xMidYMid meet">

<g transform="translate(0.000000,1080.000000) scale(0.100000,-0.100000)"
fill="#000000" stroke="none">
<path d="M5795 9623 c-4 -10 -13 -58 -21 -108 -23 -149 -34 -218 -46 -265 -10
-46 -28 -155 -48 -295 -7 -44 -18 -102 -26 -129 -8 -26 -14 -67 -14 -91 0 -23
-6 -61 -14 -83 -8 -22 -16 -59 -17 -83 -3 -39 -1 -44 21 -50 14 -4 42 -7 63
-8 45 -1 53 14 70 128 11 70 14 75 52 103 84 60 149 99 159 95 7 -3 24 -29 39
-59 15 -30 43 -78 62 -107 19 -29 35 -59 35 -66 0 -8 4 -16 9 -19 4 -3 23 -35
42 -71 48 -94 57 -101 134 -110 73 -7 86 -3 67 23 -7 9 -16 26 -21 37 -5 11
-35 67 -67 125 -33 58 -72 130 -87 160 -16 30 -41 78 -57 105 -16 28 -29 55
-29 62 -1 10 40 40 193 142 28 18 53 36 56 40 3 3 17 12 32 20 40 21 94 68 86
76 -3 4 -42 9 -85 12 l-78 5 -80 -52 c-228 -149 -379 -245 -399 -253 -16 -6
-18 -4 -12 25 7 37 29 169 46 273 6 39 16 90 21 115 11 47 37 198 46 261 5 36
4 37 -34 42 -21 3 -50 8 -64 12 -20 5 -28 2 -34 -12z"/>
<path d="M5075 9310 c-79 -13 -142 -45 -207 -107 -71 -68 -95 -113 -112 -210
-15 -90 0 -204 37 -279 34 -69 129 -154 201 -182 47 -18 78 -22 171 -22 144 0
203 20 281 96 61 59 67 84 25 113 -39 28 -77 27 -96 -3 -45 -68 -161 -104
-272 -85 -53 9 -71 18 -114 56 -75 68 -99 123 -99 225 1 164 91 268 246 284
74 8 132 -7 197 -51 l49 -33 44 30 c24 16 44 35 44 43 0 16 -89 95 -108 95 -7
0 -23 7 -35 15 -27 17 -181 27 -252 15z"/>
<path d="M4140 9123 c-73 -26 -163 -69 -193 -94 -107 -88 -118 -115 -69 -162
15 -15 31 -27 36 -27 4 0 30 23 59 52 71 71 174 118 259 118 67 0 101 -15 136
-60 16 -22 52 -87 52 -96 0 -6 -89 -42 -121 -49 -18 -4 -40 -11 -49 -15 -8 -4
-46 -20 -85 -35 -136 -51 -202 -120 -212 -218 -10 -96 55 -198 143 -227 60
-20 198 -8 266 23 68 31 132 87 158 136 l18 36 16 -37 c9 -21 16 -42 16 -47 0
-6 21 -3 48 6 26 9 53 17 60 19 19 5 15 32 -19 124 -16 47 -34 99 -38 115 -4
17 -13 40 -19 52 -7 12 -12 29 -12 38 0 9 -6 31 -14 48 -8 18 -20 51 -26 74
-6 23 -15 45 -20 48 -6 3 -10 15 -10 25 0 29 -99 130 -148 151 -54 23 -168 24
-232 2z m320 -400 c6 -16 15 -36 20 -45 18 -31 10 -91 -19 -138 -33 -55 -85
-92 -170 -120 -77 -27 -121 -18 -170 32 -42 43 -49 87 -21 133 33 53 93 86
225 125 17 5 48 15 70 24 53 20 54 20 65 -11z"/>
<path d="M7319 9113 c-21 -25 -70 -97 -94 -137 -11 -18 -42 -66 -70 -105 -27
-40 -57 -83 -65 -96 -8 -13 -65 -97 -126 -187 -61 -90 -134 -197 -162 -239
-57 -83 -60 -95 -34 -116 15 -12 166 -114 204 -138 9 -5 51 -34 94 -64 184
-126 320 -164 489 -136 117 19 281 133 336 235 11 19 23 42 28 50 28 52 36 71
47 125 40 183 -19 363 -162 501 -36 34 -78 64 -254 184 -82 56 -210 140 -213
140 -2 0 -10 -8 -18 -17z m100 -187 c9 -8 70 -50 136 -94 137 -90 200 -152
246 -243 31 -60 33 -70 32 -164 -1 -89 -4 -106 -27 -149 -67 -122 -119 -176
-216 -223 -48 -24 -67 -27 -155 -27 -91 0 -106 3 -166 31 -36 17 -116 65 -177
107 -62 42 -114 76 -117 76 -3 0 -14 9 -24 19 -19 19 -17 21 60 137 43 66 91
137 107 159 15 22 80 118 143 212 63 95 120 173 128 173 8 0 22 -6 30 -14z"/>
<path d="M3220 8876 c-58 -38 -62 -47 -38 -87 12 -18 30 -50 40 -69 18 -34 18
-35 -4 -55 -13 -11 -35 -26 -50 -32 -34 -15 -35 -36 -5 -85 l23 -36 58 35 c47
29 60 33 67 22 39 -62 189 -308 207 -342 29 -53 96 -122 138 -142 79 -37 204
-3 291 80 52 51 56 82 13 113 -37 28 -46 28 -65 -2 -26 -40 -90 -76 -134 -76
-33 0 -44 6 -77 43 -22 24 -52 65 -69 93 -16 27 -64 108 -107 179 -43 72 -78
133 -78 136 0 7 73 59 83 59 15 0 97 63 97 75 0 13 -38 85 -45 85 -2 0 -48
-26 -101 -57 -110 -64 -93 -68 -157 31 -18 27 -36 51 -42 52 -5 2 -26 -8 -45
-20z"/>
<path d="M2688 8568 c-113 -58 -240 -182 -288 -283 -59 -125 -44 -241 43 -333
47 -49 117 -82 175 -82 82 0 148 28 406 174 37 21 69 30 117 34 65 4 68 4 104
-30 29 -27 38 -43 42 -78 9 -82 -10 -124 -101 -216 -67 -68 -97 -90 -168 -123
-47 -23 -96 -41 -109 -41 -36 0 -69 -11 -69 -22 0 -6 6 -24 14 -41 8 -18 16
-40 20 -49 3 -10 14 -18 25 -18 30 0 154 40 172 56 8 8 20 14 25 14 16 0 127
80 172 123 88 85 162 224 162 305 0 57 -32 132 -78 183 -98 109 -192 117 -367
32 -27 -13 -57 -28 -65 -33 -8 -5 -56 -32 -107 -60 -141 -79 -230 -80 -288 -5
-86 114 48 315 266 400 78 31 83 36 74 74 -16 74 -60 78 -177 19z"/>
<path d="M7995 7978 c-109 -47 -188 -124 -241 -237 -24 -49 -25 -62 -22 -155
4 -103 7 -111 67 -226 28 -52 132 -147 193 -175 30 -14 72 -25 95 -25 l42 0 7
46 c7 52 4 57 -51 74 -83 26 -126 61 -183 148 -34 53 -37 63 -40 147 -3 82 -1
94 23 137 14 25 32 49 40 52 9 3 30 -15 59 -52 24 -31 54 -68 66 -82 12 -14
48 -59 80 -100 32 -41 69 -88 82 -103 13 -15 48 -59 78 -97 30 -38 57 -69 61
-70 17 -1 135 133 158 180 23 49 26 67 26 165 0 102 -2 114 -29 167 -45 88
-107 152 -188 193 -67 33 -76 35 -172 35 -81 -1 -111 -5 -151 -22z m282 -127
c51 -26 81 -55 109 -107 40 -74 48 -111 34 -173 -12 -54 -57 -141 -73 -141
-11 0 -155 172 -252 301 -11 15 -33 43 -49 63 -25 32 -27 39 -15 51 40 39 175
43 246 6z"/>
<path d="M2536 7578 c-13 -28 -76 -124 -169 -255 -20 -29 -37 -59 -37 -66 0
-17 78 -69 91 -61 6 3 31 38 58 77 26 40 71 106 99 147 59 85 64 111 25 130
-16 8 -35 20 -44 28 -13 10 -18 10 -23 0z"/>
<path d="M8725 7357 c-173 -196 -283 -317 -354 -392 -31 -33 -83 -90 -115
-128 -54 -62 -58 -70 -53 -103 4 -20 13 -44 22 -54 8 -9 15 -24 15 -33 0 -16
28 -17 328 -16 180 1 374 4 432 8 119 7 128 14 90 76 l-22 35 -349 0 c-371 0
-378 1 -328 46 12 10 76 80 142 154 66 74 153 169 193 210 40 41 82 85 93 98
l19 23 -23 52 c-30 64 -50 69 -90 24z"/>
<path d="M1610 7305 c-6 -8 -18 -34 -25 -58 l-13 -44 171 -83 c532 -258 631
-306 720 -351 54 -27 104 -49 110 -49 17 0 61 96 53 115 -3 9 -70 47 -148 84
-184 88 -505 244 -683 332 -77 38 -148 69 -156 69 -9 0 -22 -7 -29 -15z"/>
<path d="M1408 6827 c-31 -74 -25 -92 36 -108 17 -4 83 -26 146 -49 63 -22
153 -54 200 -70 47 -16 157 -55 245 -85 88 -31 169 -59 180 -62 11 -2 29 -9
40 -14 47 -22 142 -51 168 -53 26 -1 30 4 48 54 24 67 24 67 -3 73 -35 8 -119
37 -155 53 -17 8 -40 14 -51 14 -12 0 -23 4 -26 8 -3 5 -45 21 -93 37 -48 15
-97 31 -108 36 -11 5 -33 13 -50 19 -16 5 -82 27 -145 50 -63 23 -128 45 -145
50 -16 5 -82 27 -145 49 -63 23 -117 41 -120 41 -3 0 -13 -19 -22 -43z"/>
<path d="M8775 6420 c-11 -5 -32 -9 -47 -9 -14 -1 -48 -12 -75 -25 -54 -28
-169 -136 -178 -169 -4 -12 -13 -37 -22 -56 -12 -26 -14 -62 -11 -165 2 -72 8
-140 14 -151 6 -11 22 -42 35 -69 21 -42 109 -136 128 -136 4 0 21 19 39 42
l32 42 -38 40 c-57 60 -79 103 -91 179 -17 114 12 214 80 272 47 40 86 63 96
57 14 -10 43 -121 43 -168 1 -21 7 -57 15 -79 8 -22 15 -58 15 -80 0 -23 6
-65 14 -95 7 -30 17 -82 20 -115 11 -95 11 -95 66 -95 109 0 254 103 307 218
23 49 27 71 27 157 1 141 -24 207 -113 295 -67 66 -107 88 -194 109 -55 13
-133 13 -162 1z m238 -167 c64 -45 95 -91 110 -163 24 -120 -11 -215 -103
-279 -34 -22 -62 -36 -69 -31 -16 9 -30 65 -41 155 -5 39 -14 88 -19 110 -6
22 -15 73 -21 114 -6 40 -14 81 -19 90 -18 34 -2 44 62 38 44 -4 71 -13 100
-34z"/>
<path d="M1575 6290 c-11 -18 -19 -130 -9 -130 23 -1 265 -32 309 -40 28 -5
68 -9 90 -9 25 -1 67 -15 114 -39 65 -32 77 -43 100 -87 22 -42 26 -62 25
-132 0 -72 -4 -87 -30 -129 -19 -31 -45 -56 -74 -72 -43 -23 -51 -24 -160 -18
-63 3 -131 10 -150 16 -19 5 -82 14 -140 19 -58 6 -117 13 -131 16 -26 7 -26
6 -32 -61 -8 -81 -5 -84 78 -84 33 0 87 -7 120 -14 33 -8 96 -17 140 -21 44
-3 103 -11 131 -17 40 -8 65 -7 123 6 117 27 165 65 218 175 24 49 27 68 28
156 0 108 -14 155 -64 224 l-25 33 59 -3 60 -4 8 59 c4 32 6 60 4 62 -2 3 -49
9 -103 14 -55 5 -117 14 -139 19 -22 6 -62 11 -90 11 -27 0 -68 5 -90 11 -22
5 -96 16 -165 24 -69 9 -141 18 -161 21 -23 4 -39 2 -44 -6z"/>
<path d="M8499 5423 c-6 -6 -9 -35 -7 -65 l3 -53 550 -6 c337 -3 555 -2 563 4
7 6 12 32 12 64 0 34 -5 55 -12 58 -7 2 -258 5 -556 7 -406 2 -546 0 -553 -9z"/>
<path d="M1765 5251 c-28 -6 -30 -10 -29 -46 1 -22 6 -69 12 -105 44 -260 56
-378 41 -396 -7 -9 -33 -14 -73 -14 -33 0 -88 -5 -121 -12 -33 -6 -85 -12
-115 -12 l-55 -1 -7 55 c-4 30 -14 96 -22 145 -19 112 -36 231 -46 313 -4 35
-10 66 -14 69 -3 3 -31 0 -61 -7 -51 -12 -55 -15 -55 -43 0 -16 6 -59 14 -96
8 -36 20 -104 25 -151 32 -250 40 -307 50 -333 6 -16 11 -51 11 -78 l0 -50 48
6 c26 4 61 10 77 15 17 5 66 12 110 16 44 4 100 13 125 20 25 8 68 14 95 14
28 1 70 5 95 11 25 5 92 16 150 24 376 51 369 49 350 99 -5 15 -10 43 -10 62
0 39 -6 40 -95 23 -85 -16 -268 -42 -305 -43 -34 -1 -35 0 -38 39 -1 22 -9 72
-16 110 -8 39 -17 99 -21 135 -3 36 -10 83 -15 105 -5 22 -12 61 -15 88 -6 43
-8 47 -33 46 -15 -1 -40 -4 -57 -8z"/>
<path d="M8721 5104 c-36 -8 -72 -21 -80 -28 -9 -8 -25 -16 -36 -20 -29 -9
-97 -74 -128 -123 -49 -78 -72 -159 -71 -258 1 -81 4 -97 36 -165 25 -54 49
-88 86 -121 57 -51 148 -99 190 -99 15 0 44 -4 65 -9 48 -11 165 9 224 38 57
28 138 111 169 173 29 56 54 161 54 218 -1 56 -25 144 -56 199 -51 95 -160
172 -268 192 -94 17 -121 17 -185 3z m172 -143 c21 -5 62 -24 92 -42 47 -28
60 -43 90 -104 40 -82 45 -135 17 -205 -38 -96 -62 -127 -135 -168 -32 -18
-54 -22 -132 -22 -89 0 -97 2 -154 35 -70 41 -103 77 -126 140 -23 59 -17 173
13 230 31 62 110 128 163 138 43 8 133 7 172 -2z"/>
<path d="M8015 4385 c-31 -51 -27 -78 13 -94 15 -6 72 -36 127 -67 55 -30 117
-62 138 -71 20 -9 37 -21 37 -27 0 -10 -68 -46 -87 -46 -17 0 -99 -79 -128
-124 -36 -57 -75 -176 -75 -229 0 -39 24 -125 48 -176 41 -83 173 -185 276
-213 109 -29 177 -21 286 30 160 77 260 297 205 451 -14 42 -14 42 7 35 12 -3
35 -15 52 -25 17 -11 34 -19 38 -19 8 0 58 96 58 111 0 5 -28 23 -62 39 -35
17 -70 35 -78 40 -14 9 -98 54 -335 180 -55 29 -109 58 -120 63 -11 6 -27 14
-35 18 -8 5 -31 17 -50 27 -19 10 -87 46 -151 80 -64 34 -121 62 -127 62 -6 0
-23 -20 -37 -45z m572 -391 c103 -54 163 -144 163 -244 0 -101 -9 -125 -66
-188 -70 -77 -108 -96 -204 -95 -62 0 -84 4 -129 27 -66 34 -147 115 -156 156
-4 16 -11 32 -16 35 -14 9 -11 70 6 129 31 106 117 195 202 209 59 10 152 -3
200 -29z"/>
<path d="M2632 3934 c-11 -7 -60 -34 -108 -59 -49 -25 -96 -50 -104 -54 -100
-58 -209 -101 -256 -101 -79 0 -180 63 -211 133 -15 33 -30 34 -83 6 -51 -27
-55 -34 -35 -65 54 -83 124 -135 198 -149 42 -8 40 -19 -6 -39 -18 -8 -41 -21
-52 -29 -19 -14 -19 -16 -2 -34 9 -11 17 -25 17 -31 0 -7 9 -21 20 -32 20 -20
20 -20 117 31 256 132 598 311 601 314 6 5 -52 115 -64 119 -6 2 -21 -2 -32
-10z"/>
<path d="M2603 3550 c-103 -37 -230 -152 -261 -238 -44 -124 -40 -210 16 -332
34 -74 141 -180 218 -217 53 -24 70 -27 164 -28 104 0 106 0 179 40 86 47 159
122 198 204 25 50 28 67 28 161 0 97 -3 110 -32 170 -56 115 -156 206 -267
243 -66 22 -176 21 -243 -3z m239 -133 c118 -53 172 -133 172 -257 0 -118 -48
-195 -169 -265 -67 -40 -167 -41 -241 -2 -70 36 -129 105 -150 175 -14 49 -15
66 -5 117 15 73 44 119 110 176 90 78 190 97 283 56z"/>
<path d="M7840 3403 c-14 -2 -57 -20 -96 -38 -131 -62 -232 -191 -264 -337
-18 -79 -12 -88 55 -88 l55 0 0 35 c0 49 53 156 101 204 92 92 230 121 332 72
l48 -23 -23 -26 c-21 -24 -61 -66 -332 -349 -105 -110 -106 -113 -54 -160 12
-11 54 -38 92 -59 68 -37 71 -38 175 -38 83 1 115 5 146 19 121 58 192 136
239 263 20 53 21 187 2 223 -7 14 -16 37 -20 52 -3 15 -11 27 -16 27 -6 0 -10
7 -10 16 0 20 -106 131 -145 152 -88 48 -209 71 -285 55z m340 -310 c20 -39
25 -60 24 -122 -1 -68 -4 -81 -33 -123 -44 -64 -92 -102 -164 -128 l-61 -23
-70 23 c-117 38 -121 26 76 234 95 102 180 185 188 185 8 1 26 -20 40 -46z"/>
<path d="M3368 2978 c-25 -29 -60 -74 -79 -99 -19 -25 -79 -102 -134 -170 -55
-68 -113 -142 -129 -164 -16 -22 -32 -42 -35 -45 -4 -3 -21 -23 -38 -44 -38
-46 -34 -59 28 -101 l41 -29 49 54 c27 30 61 73 76 95 15 22 37 50 50 63 12
13 41 49 64 80 24 31 64 82 89 112 26 30 57 71 70 90 13 19 39 51 57 70 18 19
33 42 33 51 0 16 -75 89 -91 89 -3 0 -27 -24 -51 -52z"/>
<path d="M7200 2903 c-19 -13 -38 -30 -42 -37 -5 -9 16 -49 55 -106 34 -51 67
-100 72 -109 6 -8 31 -47 56 -86 59 -89 89 -158 89 -204 0 -54 -41 -131 -94
-178 -25 -22 -46 -45 -46 -51 0 -14 59 -102 69 -102 4 0 30 22 57 48 54 52 90
117 100 181 l6 40 40 -50 39 -49 44 30 c53 36 56 57 19 106 -15 19 -50 70 -78
114 -180 278 -321 480 -335 479 -9 0 -32 -12 -51 -26z"/>
<path d="M3626 2763 c-28 -60 -35 -74 -54 -108 -7 -11 -17 -31 -22 -45 -14
-33 -18 -42 -30 -62 -25 -44 -69 -132 -95 -192 -25 -55 -25 -198 0 -249 20
-43 130 -147 155 -147 10 0 23 -6 29 -14 6 -8 46 -22 88 -32 71 -17 79 -17
138 -1 35 9 66 17 68 17 8 0 2 -27 -9 -41 -17 -22 -24 -48 -17 -65 8 -20 92
-59 103 -48 14 14 350 684 350 697 0 16 -74 57 -102 57 -20 0 -36 -28 -122
-200 -85 -172 -106 -206 -153 -251 l-55 -52 -79 -5 c-70 -4 -84 -2 -131 22
-65 32 -87 50 -121 101 -51 76 -43 107 116 422 l97 192 -27 20 c-14 12 -34 21
-44 21 -10 0 -21 5 -24 10 -14 23 -34 7 -59 -47z"/>
<path d="M6449 2520 c-46 -13 -66 -29 -82 -63 -40 -83 37 -164 126 -133 57 19
82 49 82 96 0 65 -66 118 -126 100z"/>
<path d="M4467 2400 c-4 -18 -7 -49 -7 -69 0 -20 -5 -52 -11 -71 -12 -37 -31
-142 -50 -270 -6 -41 -17 -100 -25 -130 -25 -100 -35 -193 -21 -207 13 -13
107 -34 119 -27 3 2 9 35 13 72 3 37 11 78 16 93 5 14 14 56 19 95 28 216 70
302 172 355 70 36 220 16 274 -36 12 -11 31 -38 43 -61 20 -35 22 -51 18 -115
-3 -41 -10 -98 -16 -126 -32 -155 -65 -362 -58 -370 3 -2 34 -5 68 -6 l64 -2
11 70 c7 39 17 102 23 140 7 39 19 100 27 136 9 39 16 114 16 182 1 103 -2
119 -22 154 -37 61 -81 103 -135 127 -136 63 -272 60 -372 -9 -36 -24 -38 -25
-41 -6 -2 11 1 37 7 57 6 21 9 39 7 41 -2 2 -32 6 -68 10 l-65 6 -6 -33z"/>
<path d="M5695 2353 c-209 -43 -279 -128 -279 -338 0 -122 31 -553 44 -607 5
-24 10 -66 10 -95 0 -28 3 -54 8 -56 4 -3 52 -1 107 4 119 11 348 28 389 28
28 1 28 1 24 56 -3 31 -9 59 -14 64 -10 9 -242 -4 -316 -17 -26 -5 -51 -6 -56
-3 -13 9 -50 452 -51 621 -1 70 3 94 22 130 57 115 230 123 344 17 l31 -29 31
33 c48 54 49 68 7 105 -77 67 -212 106 -301 87z"/>
<path d="M2753 2230 c-41 -41 -48 -62 -29 -99 32 -61 100 -80 150 -40 22 17
26 29 26 68 0 56 -27 89 -81 97 -29 5 -39 1 -66 -26z"/>
</g>
</svg>
